<svg width="29" height="25" viewBox="0 0 29 25" fill="none" xmlns="http://www.w3.org/2000/svg">
<path d="M3.25442 24.0293C3.12785 24.0262 3.00014 24.0293 2.87564 24.0103C2.81231 24.0008 2.75001 23.9892 2.68781 23.9754L2.52274 23.9332C1.94153 23.7812 1.44022 23.4465 1.07075 22.9641L1.06144 22.9514C0.747034 22.5249 0.567476 22.0678 0.512419 21.5537C0.504176 21.4663 0.500032 21.3786 0.5 21.2908L0.50414 21.1536L0.513454 21.0385L0.527943 20.9002L0.552884 20.7344C0.571879 20.6281 0.595778 20.5228 0.6245 20.4188C0.679414 20.2226 0.749881 20.0312 0.835209 19.8466L0.853837 19.8076C1.35929 18.8204 1.96326 18.0403 2.49055 17.3868C2.78227 17.0298 3.08301 16.6806 3.39248 16.3395L3.77643 15.9215L3.65193 15.4866C3.55496 15.1198 3.47566 14.7485 3.41432 14.3738L3.27626 13.0236C3.19636 11.1888 3.55331 9.34872 4.30993 7.69337C5.06128 6.03908 6.21438 4.57373 7.64339 3.45686C9.47839 2.0211 11.7441 1.1849 14.0315 1.09938L14.3947 1.09201V1.0899L14.5567 1.08674C15.2354 1.08674 15.7979 1.64839 15.8114 2.33778C15.8249 3.04192 15.2738 3.62579 14.5816 3.63948L14.4767 3.64158V3.64369L14.1332 3.65106C12.3606 3.71962 10.6025 4.36784 9.18272 5.47849C8.06708 6.35155 7.1724 7.48853 6.59026 8.77011C6.00274 10.056 5.72466 11.4855 5.78582 12.9043L5.89273 13.9505C5.98618 14.5291 6.1408 15.116 6.34312 15.6544L6.38783 15.7674C6.4781 15.9972 6.50094 16.2488 6.45359 16.4917C6.40624 16.7345 6.29072 16.9581 6.12103 17.1355L6.11275 17.144C5.42991 17.8492 4.89331 18.4456 4.42419 19.02C3.83159 19.7452 3.37489 20.4125 3.10301 20.9498C3.08956 20.9794 3.05324 21.0712 3.04278 21.1166C3.03554 21.143 3.02933 21.1683 3.02519 21.1916L3.02001 21.2232L3.01277 21.3024C3.01898 21.332 3.03657 21.3774 3.06038 21.4048C3.06979 21.4165 3.1144 21.4597 3.16118 21.4629L3.22234 21.4798L3.25246 21.485C3.27315 21.4882 3.29499 21.4903 3.31579 21.4903H3.31786C3.34891 21.4903 3.37178 21.4882 3.39362 21.4861L3.40604 21.484C3.41742 21.4819 3.4257 21.4808 3.45696 21.4734C4.16898 21.3077 4.95551 21.0163 5.9363 20.5539C6.7012 20.1929 7.50864 19.7643 8.40539 19.2407C9.86876 18.3865 11.4275 17.3636 13.1691 16.1115L15.745 14.1753L16.2224 13.7636H10.8734L10.3627 13.7678L10.2517 13.7636C9.8729 13.7636 9.45459 13.5894 9.18582 13.3213C8.90453 13.0469 8.73646 12.691 8.6991 12.293C8.64715 11.8286 8.85165 11.2869 9.19514 10.9766L9.21273 10.9597L11.7182 8.80076L14.3708 6.80651C16.2121 5.48376 17.7906 4.44703 19.3453 3.54017C20.3063 2.97968 21.1781 2.51619 22.0094 2.12452C22.8355 1.73706 23.833 1.30422 24.9715 1.03609L24.9828 1.03293C25.1945 0.981113 25.4446 0.970581 25.6688 0.970581C25.6936 0.970581 25.7186 0.971634 25.7435 0.972687C25.8701 0.975847 25.9978 0.966368 26.1233 0.985325C26.1867 0.994909 26.2489 1.00649 26.3112 1.02029L26.4773 1.06242C27.0585 1.21449 27.5597 1.54918 27.9291 2.03058L27.9386 2.04322C28.253 2.46974 28.4325 2.92681 28.4876 3.43991C28.4959 3.52647 28.5 3.61515 28.5 3.70277L28.4959 3.83473L28.4854 3.95616L28.472 4.09339L28.447 4.25915C28.4284 4.36362 28.4045 4.46926 28.3754 4.57478C28.3199 4.77112 28.2495 4.96277 28.1648 5.14801L28.1461 5.18708C27.6406 6.1742 27.0366 6.95427 26.5094 7.60786C26.2175 7.96458 25.9167 8.31378 25.6075 8.65511L25.2224 9.07427L25.3086 9.36767C25.3972 9.68624 25.4724 10.0085 25.5338 10.3336C25.6563 10.9846 25.7229 11.6452 25.7331 12.3079L25.73 12.5464C25.7289 12.7101 25.7268 12.879 25.7186 13.0458C25.6449 14.68 25.2079 16.3174 24.4556 17.7795C23.7124 19.2279 22.6403 20.5286 21.3544 21.5388C19.5247 22.9725 17.2653 23.8087 14.9841 23.8974L14.5327 23.9069L14.515 23.9037C13.8394 23.9026 13.2769 23.342 13.2623 22.6548C13.2479 21.9506 13.799 21.3658 14.4902 21.351L14.6458 21.3478H14.6665L14.8793 21.3446C16.6479 21.2739 18.4007 20.6258 19.8174 19.5183C21.837 17.9474 23.1032 15.4823 23.2101 12.9191C23.2153 12.8051 23.2174 12.6899 23.2184 12.5781C23.2184 12.5042 23.2195 12.4292 23.2215 12.3554C23.2059 11.3102 23.015 10.2977 22.6538 9.33492L22.6123 9.22939C22.4286 8.75653 22.5344 8.22016 22.8801 7.86125L22.8874 7.85387C23.5712 7.14858 24.1078 6.55218 24.5759 5.97779C25.1685 5.25364 25.6251 4.58531 25.8971 4.04799C25.9105 4.01851 25.9469 3.92657 25.9573 3.88118C25.9646 3.85485 25.9708 3.82841 25.9749 3.80619L25.9801 3.77249L25.9873 3.69329C25.9811 3.66486 25.9635 3.62042 25.9396 3.59198C25.9303 3.5804 25.8857 3.53701 25.8389 3.5349L25.7778 3.51805L25.7476 3.51278C25.7267 3.50941 25.7055 3.50765 25.6843 3.50752C25.6335 3.50752 25.6106 3.50752 25.5421 3.52437C24.8302 3.69013 24.0435 3.98144 23.0628 4.44387C22.2979 4.80489 21.4904 5.23353 20.5937 5.75715C19.1303 6.61021 17.5726 7.63419 15.83 8.88628L13.2541 10.8224L12.8026 11.211H18.7712C19.1521 11.211 19.5704 11.3861 19.8403 11.6575C20.1204 11.933 20.2875 12.2899 20.3239 12.6878C20.3737 13.1513 20.1682 13.6908 19.8257 14.0001L19.8091 14.016L17.2809 16.197L14.6281 18.1913C12.787 19.5141 11.2085 20.5508 9.65381 21.4576C8.69269 22.0181 7.82098 22.4816 6.98963 22.8733C6.16346 23.2607 5.16612 23.6936 4.02771 23.9617L4.01622 23.9649C3.93529 23.985 3.81907 24.0019 3.72769 24.0135C3.59377 24.0314 3.45789 24.0293 3.32511 24.0293H3.25442Z" fill="#616161"/>
</svg>
